<?xml version="1.0" encoding="UTF-8"?>
<svg id="Capa_1" data-name="Capa 1" xmlns="http://www.w3.org/2000/svg" viewBox="0 0 1080 1080">
  <defs>
    <style>
      .cls-1 {
        stroke-width: 0px;
      }

      .cls-2 {
        fill: #fff;
        font-family: Montserrat-Black, Montserrat;
        font-size: 61.19px;
        font-weight: 800;
      }

      .cls-3 {
        letter-spacing: .08em;
      }

      .cls-4 {
        letter-spacing: .08em;
      }

      .cls-5 {
        letter-spacing: .1em;
      }

      .cls-6 {
        letter-spacing: .1em;
      }
    </style>
  </defs>
  <path class="cls-1" d="m604.17,587.78c2.25-2.64,3.99-4.59,5.62-6.63,12.28-15.43,18.3-33.07,18.31-52.74.04-67.02,0-134.04.03-201.06,0-12.26-2.51-24.02-7.38-35.75h100.52c-1.41,3.49-2.65,6.66-3.96,9.79-23.95,57.05-47.92,114.1-71.86,171.16-.7,1.67-1.56,3.45-1.57,5.19-.12,17.82-.07,35.65-.07,54.06h96.79v55.99h-136.43Z"/>
  <path class="cls-1" d="m570.86,426.67c0,33.98.23,67.97-.1,101.95-.16,16.56-15.01,30.14-31.43,29.79-17.07-.37-31.03-13.44-31.13-30.15-.27-43.81-.15-87.62-.16-131.44,0-23.49-.16-46.98.09-70.47.2-18.46,14.64-31.8,33.08-31.12,15.81.59,29.42,13.69,29.56,29.49.3,33.98.09,67.96.09,101.95Z"/>
  <path class="cls-1" d="m477.88,587.86h-75.1v-55.83h34.86v-55.08h-34.88v-185.19h57.53c-1.9,8.2-3.97,16.36-5.64,24.6-.69,3.39-.71,6.96-.71,10.44-.04,66.51.08,133.03-.09,199.54-.06,22.69,7.02,42.45,22.21,59.3.43.47.81.99,1.8,2.22Z"/>
  <path class="cls-1" d="m251.99,470.59v-179.03h76.1c-25.2,59.98-50.22,119.55-75.25,179.11-.28-.03-.57-.06-.85-.08Z"/>
  <path class="cls-1" d="m796.17,291.5h30.6v185.04h-30.6v-185.04Z"/>
  <path class="cls-1" d="m251.91,587.65v-55.23h95.53v55.23h-95.53Z"/>
  <path class="cls-1" d="m347.63,364.53v111.88h-45.44c14.92-37.62,29.68-74.86,44.45-112.09.33.07.66.14.99.2Z"/>
  <path class="cls-1" d="m740.62,476.62h-45.16c15-37.81,29.79-75.1,44.58-112.39.19.03.39.06.58.09v112.29Z"/>
  <path class="cls-1" d="m296.09,653.96v-36.21h14.48v63.2c-7.02,1.39-12.68.71-17.55-6.08-7.63-10.64-16.49-20.39-25.76-31.66v37.85h-14.93v-63.17c7.45-1.36,13.3-.85,18.28,6.21,7.45,10.56,16.21,20.19,24.41,30.22.36-.12.71-.24,1.07-.36Z"/>
  <path class="cls-1" d="m748.62,680.89c-8.13,2.13-13.63-.39-18.49-7.09-7.49-10.31-16.06-19.84-25.05-30.77v38.13h-14.65v-63.26c6.59-.9,12.38-1.64,17.34,5.27,7.81,10.89,16.82,20.91,26.19,32.34v-37.74h14.67v63.13Z"/>
  <path class="cls-1" d="m764.03,616.88c13.35.55,26.63-.12,39.47,1.95,16.43,2.64,25.19,15.52,24.6,32.55-.53,15.23-10.97,27.46-27.03,29.15-12.15,1.28-24.54.25-37.05.25v-63.9Zm15.21,13.01v38.93c5.72,0,11.21.4,16.62-.08,10.77-.96,17.34-8.97,17.11-20.18-.21-10.33-7.29-17.92-17.73-18.6-5.13-.33-10.31-.06-16-.06Z"/>
  <path class="cls-1" d="m391.92,649.22c0,19.21-14.66,33.17-34.91,33.21-20.38.04-35.06-13.74-35.1-32.95-.04-19.17,14.76-33.35,34.85-33.41,20.02-.05,35.14,14.21,35.15,33.15Zm-54.83.25c.03,11.46,8.57,20.24,19.68,20.26,11.4.02,20.07-8.88,19.98-20.5-.09-11.5-8.54-20.15-19.72-20.18-11.52-.03-19.97,8.63-19.94,20.41Z"/>
  <path class="cls-1" d="m571.5,682.47c-13.77-.54-25.35-6.07-31.13-19.6-5.45-12.76-3.86-25.22,5.72-35.82,11.49-12.7,33.59-14.53,48.05-4.26,13.22,9.39,17.54,27.84,9.48,42.39-6.8,12.28-17.97,17.2-32.13,17.29Zm-18.71-33.3c-.04,11.88,8.39,20.62,19.82,20.56,11.15-.06,19.67-8.74,19.81-20.19.15-11.64-8.51-20.53-19.93-20.47-11.34.06-19.67,8.55-19.71,20.09Z"/>
  <path class="cls-1" d="m675.84,617.76c0,13.11.49,25.93-.12,38.71-.83,17.33-12.16,26.58-30.56,25.95-17.01-.59-27.13-10.94-27.2-27.92-.04-11.82.02-23.64.05-35.46,0-.32.16-.64.34-1.3h14.6c0,10.63,0,21.08,0,31.52,0,2.16-.1,4.34.07,6.49.74,9.08,6.07,14.25,14.31,13.98,8.37-.27,13.4-5.54,13.57-14.67.18-9.82.04-19.65.05-29.47,0-2.49,0-4.97,0-7.83h14.89Z"/>
  <path class="cls-1" d="m532.13,617.74v11.51h-32.94v16.76h28.89v12.09h-29v23.02h-14.9v-63.37h47.94Z"/>
  <path class="cls-1" d="m796.16,532.29h30.53v55.44h-30.53v-55.44Z"/>
  <path class="cls-1" d="m415.16,681.1v-51.16h-19.99v-12.14h54.89v11.75h-19.79v51.54h-15.11Z"/>
  <rect class="cls-1" x="251.86" y="699.92" width="574.91" height="88.58"/>
  <text class="cls-2" transform="translate(283.47 767.3)"><tspan class="cls-4" x="0" y="0">E</tspan><tspan class="cls-5" x="46.07" y="0">-</tspan><tspan class="cls-3" x="76.05" y="0">C</tspan><tspan class="cls-6" x="126.78" y="0">OMMERCE</tspan></text>
</svg>