<?xml version="1.0" standalone="no"?>
<!DOCTYPE svg PUBLIC "-//W3C//DTD SVG 20010904//EN"
 "http://www.w3.org/TR/2001/REC-SVG-20010904/DTD/svg10.dtd">
<svg version="1.0" xmlns="http://www.w3.org/2000/svg"
 width="593.000000pt" height="499.000000pt" viewBox="0 0 593.000000 499.000000"
 preserveAspectRatio="xMidYMid meet">

<g transform="translate(0.000000,499.000000) scale(0.100000,-0.100000)"
fill="#000000" stroke="none">
<path d="M0 2495 l0 -2495 2965 0 2965 0 0 2495 0 2495 -2965 0 -2965 0 0
-2495z m1080 2260 c0 -6 -39 -101 -322 -775 -121 -289 -249 -592 -283 -675
-35 -82 -67 -149 -72 -148 -8 3 -17 1568 -8 1591 3 9 82 12 345 12 187 0 340
-2 340 -5z m1190 1 c0 -2 -12 -55 -27 -117 l-28 -114 0 -995 c0 -930 1 -1000
18 -1073 22 -93 90 -233 147 -301 22 -26 40 -52 40 -57 0 -5 -146 -9 -335 -9
l-335 0 0 255 0 255 155 0 155 0 -2 243 -3 242 -152 3 -153 3 0 834 0 835 260
0 c143 0 260 -2 260 -4z m2340 -6 c0 -5 -58 -148 -129 -317 -151 -363 -510
-1217 -540 -1287 -20 -46 -21 -63 -19 -295 l3 -246 433 -3 432 -2 -2 -253 -3
-252 -600 -3 c-330 -1 -606 0 -613 3 -9 3 1 21 32 57 59 68 121 192 146 294
20 78 20 108 18 1115 l-3 1034 -23 69 c-13 37 -26 75 -29 82 -4 12 66 14 446
14 282 0 451 -4 451 -10z m948 -822 l-3 -833 -135 0 -135 0 -3 820 c-1 451 0
826 3 833 3 9 41 12 140 12 l135 0 -2 -832z m-2450 768 c61 -31 105 -79 133
-141 l22 -50 1 -965 c0 -953 0 -966 -21 -1011 -27 -61 -84 -116 -151 -147 -46
-21 -65 -24 -126 -20 -114 8 -205 69 -249 167 -19 44 -20 67 -21 1011 l-1 965
23 50 c69 151 246 214 390 141z m-1850 -1098 l-3 -503 -194 -3 c-107 -1 -198
1 -203 6 -10 10 380 1002 394 1002 4 0 7 -226 6 -502z m3527 -495 c-3 -10 -53
-13 -199 -13 -107 0 -197 3 -199 8 -5 7 372 966 390 994 8 13 17 -967 8 -989z
m-3530 -758 l0 -250 -430 0 -430 0 -3 244 c-2 189 1 246 10 253 7 4 202 7 433
5 l420 -2 0 -250z m4303 -3 l2 -253 -137 3 -138 3 -3 240 c-1 132 0 245 3 253
3 10 36 12 137 10 l133 -3 3 -253z m-4116 -513 c55 -14 129 -69 165 -122 57
-85 65 -187 22 -287 -102 -235 -467 -236 -580 -2 -31 64 -32 177 -2 243 66
146 219 212 395 168z m1958 -8 c76 -29 125 -74 161 -147 114 -230 -85 -473
-346 -425 -120 22 -196 83 -235 188 -62 165 28 341 200 394 50 15 168 10 220
-10z m1949 -3 c147 -27 223 -122 224 -277 0 -116 -51 -204 -146 -253 -51 -26
-190 -38 -327 -30 l-105 7 -3 275 c-1 151 0 281 3 289 5 11 31 13 152 7 81 -4
172 -12 202 -18z m-4828 -6 c14 -9 76 -80 138 -157 62 -77 116 -141 121 -143
6 -2 11 66 12 155 l3 158 65 0 65 0 3 -265 c1 -146 0 -275 -3 -287 -4 -18 -12
-23 -40 -23 -70 0 -65 -5 -254 228 -41 51 -78 92 -83 92 -4 0 -8 -70 -8 -155
l0 -155 -70 0 -70 0 0 285 0 285 48 0 c28 0 57 -7 73 -18z m1657 -39 l3 -52
-88 -3 -88 -3 -5 -230 -5 -230 -44 -3 c-25 -2 -55 -1 -68 3 l-23 5 0 225 0
224 -87 3 -88 3 -3 44 c-6 76 -20 72 250 69 l243 -3 3 -52z m737 2 l0 -50
-147 -3 -148 -3 0 -69 0 -70 114 0 c63 0 121 -3 130 -6 12 -5 16 -20 16 -60
l0 -54 -130 0 -129 0 -3 -102 -3 -103 -44 -3 c-25 -2 -55 -1 -68 3 l-23 5 0
279 c0 153 3 281 7 285 4 3 102 5 217 4 l211 -3 0 -50z m907 -139 c3 -220 9
-237 83 -265 32 -13 43 -13 78 0 76 27 82 44 85 265 l3 195 67 -3 67 -3 0
-195 c0 -218 -6 -249 -62 -311 -45 -50 -109 -74 -198 -74 -89 0 -153 24 -199
75 -55 61 -66 116 -66 320 0 97 3 180 7 183 3 4 34 7 69 7 l62 0 4 -194z m621
185 c13 -5 48 -40 78 -78 29 -37 85 -106 124 -152 l70 -84 5 159 5 159 68 3
67 3 -2 -288 -3 -288 -32 -3 c-50 -5 -97 24 -149 91 -27 34 -82 102 -124 152
l-75 89 -5 -164 -5 -165 -44 -3 c-25 -2 -55 -1 -68 3 l-23 5 0 279 c0 153 3
281 7 284 9 10 78 8 106 -2z m1117 -1131 l0 -400 -2585 0 -2585 0 0 400 0 400
2585 0 2585 0 0 -400z"/>
<path d="M1270 1709 c-94 -39 -132 -164 -79 -258 31 -56 79 -85 143 -86 105
-1 176 69 176 173 0 108 -58 174 -158 179 -32 1 -68 -2 -82 -8z"/>
<path d="M3205 1706 c-69 -31 -112 -113 -101 -190 22 -145 186 -203 295 -103
55 51 68 152 28 222 -41 73 -143 106 -222 71z"/>
<path d="M5148 1714 c-5 -4 -8 -84 -8 -177 l0 -169 95 4 c105 4 130 16 173 79
20 29 23 44 20 99 -4 73 -29 120 -78 145 -32 16 -191 32 -202 19z"/>
<path d="M1495 871 c-167 -76 -145 -326 33 -377 83 -24 170 -6 216 45 20 22
20 22 -16 57 l-35 36 -34 -21 c-45 -27 -82 -26 -116 3 -24 21 -28 32 -28 75 0
39 5 56 23 73 30 30 92 31 124 1 l23 -21 40 34 c47 41 43 57 -25 92 -56 28
-147 30 -205 3z"/>
<path d="M1953 869 c-172 -85 -139 -334 49 -380 141 -33 268 59 268 194 0 91
-33 147 -112 188 -52 27 -149 26 -205 -2z m158 -108 c59 -59 27 -171 -49 -171
-69 0 -111 79 -78 146 27 59 82 69 127 25z"/>
<path d="M4520 868 c-24 -13 -57 -40 -74 -61 -42 -53 -49 -144 -16 -213 42
-85 146 -129 250 -104 48 11 110 51 110 70 0 5 -18 23 -40 40 l-40 32 -26 -21
c-36 -29 -85 -27 -118 4 -21 19 -26 33 -26 69 0 87 73 129 141 83 l37 -25 38
39 c43 44 40 55 -30 88 -59 29 -148 28 -206 -1z"/>
<path d="M710 680 l0 -190 160 0 160 0 0 45 0 44 -92 3 c-92 3 -93 3 -93 28 0
24 2 25 78 28 l77 3 0 44 0 44 -77 3 c-70 3 -78 5 -78 23 0 18 8 20 88 23 l87
3 0 44 0 45 -155 0 -155 0 0 -190z"/>
<path d="M2370 680 l0 -190 60 0 59 0 3 78 3 77 38 -62 c33 -53 43 -63 67 -63
24 0 34 9 67 66 l38 66 3 -81 3 -81 59 0 60 0 0 190 0 190 -54 0 -55 0 -56
-95 c-30 -52 -60 -95 -64 -95 -5 0 -35 43 -66 95 l-58 95 -53 0 -54 0 0 -190z"/>
<path d="M2950 680 l0 -190 55 0 55 0 0 68 c0 38 3 72 7 76 4 3 24 -21 45 -54
32 -49 43 -60 66 -60 23 0 33 10 61 60 19 33 39 60 43 60 4 0 8 -34 8 -75 l0
-75 60 0 60 0 0 190 0 191 -57 -3 -58 -3 -52 -90 c-30 -49 -58 -91 -62 -93 -5
-2 -36 40 -68 92 l-58 96 -52 0 -53 0 0 -190z"/>
<path d="M3534 857 c-2 -7 -3 -91 -2 -187 l3 -175 160 0 160 0 0 40 0 40 -95
5 c-93 5 -95 5 -95 30 0 24 2 25 77 28 l77 3 7 35 c4 20 3 39 -2 44 -5 5 -43
10 -84 12 -67 3 -75 5 -75 23 0 18 8 20 93 23 l92 3 0 44 0 45 -155 0 c-118 0
-157 -3 -161 -13z"/>
<path d="M3950 680 l0 -190 65 0 65 0 0 45 c0 38 3 45 20 45 11 0 31 -18 50
-45 l31 -45 64 0 c36 0 65 4 65 8 0 5 -13 26 -30 48 -29 39 -39 74 -20 74 19
0 50 65 50 103 0 56 -25 100 -69 125 -34 19 -54 22 -165 22 l-126 0 0 -190z
m214 84 c38 -38 6 -89 -52 -82 -23 2 -28 9 -30 36 -2 19 -1 40 2 48 7 19 61
18 80 -2z"/>
<path d="M4880 680 l0 -190 160 0 160 0 0 45 0 44 -92 3 c-92 3 -93 3 -93 28
0 24 2 25 78 28 l77 3 0 44 0 44 -77 3 c-70 3 -78 5 -78 23 0 18 8 20 88 23
l87 3 0 44 0 45 -155 0 -155 0 0 -190z"/>
<path d="M1120 655 l0 -45 86 0 85 0 -3 43 -3 42 -82 3 -83 3 0 -46z"/>
</g>
</svg>