<svg xmlns="http://www.w3.org/2000/svg" xmlns:xlink="http://www.w3.org/1999/xlink" viewBox="0,0,256,256" width="50px" height="50px"><g fill="#242424" fill-rule="nonzero" stroke="none" stroke-width="1" stroke-linecap="butt" stroke-linejoin="miter" stroke-miterlimit="10" stroke-dasharray="" stroke-dashoffset="0" font-family="none" font-weight="none" font-size="none" text-anchor="none" style="mix-blend-mode: normal"><path d="M0,256v-256h256v256z" id="bgRectangle"></path></g><g fill-opacity="0.86275" fill="#01ffc4" fill-rule="nonzero" stroke="none" stroke-width="1" stroke-linecap="butt" stroke-linejoin="miter" stroke-miterlimit="10" stroke-dasharray="" stroke-dashoffset="0" font-family="none" font-weight="none" font-size="none" text-anchor="none" style="mix-blend-mode: normal"><g transform="scale(2.56,2.56)"><path d="M69.50781,11.89258c-0.58853,0.00662 -1.17865,0.04704 -1.76562,0.12305c-4.15688,0.53828 -8.29976,2.33975 -11.54297,5.2168c-10.39949,-0.38299 -20.49698,-1.37825 -31.32031,-1.21484c-0.00456,-0.00002 -0.00911,-0.00002 -0.01367,0c-2.15966,0.0477 -4.2082,0.95683 -5.69336,2.51758c-1.48418,1.55903 -2.29527,3.64646 -2.24219,5.80273c0.25588,16.73882 -1.59859,34.06226 -0.66602,50.63672c0.00058,0.00977 0.00123,0.01954 0.00195,0.0293c0.3098,4.37979 3.85382,7.87719 8.24219,8.125c18.37711,1.03622 35.59293,1.21816 51.13867,0.15625c0.00456,0.00002 0.00911,0.00002 0.01367,0c4.47873,-0.33787 7.9165,-4.22049 7.70703,-8.71094c0.00003,-0.00651 0.00003,-0.01302 0,-0.01953c-0.54816,-9.77536 -0.38035,-10.61976 -0.07031,-13.23633c0.30495,-2.57359 0.73274,-6.79154 0.69922,-21.67969c2.19631,-3.63503 3.00391,-7.07041 3.00391,-10.66016c0,-9.01618 -7.55249,-16.17269 -15.73242,-17.00586c-0.58428,-0.05951 -1.17123,-0.0867 -1.75977,-0.08008zM69.53516,15.90234c0.15557,-0.00035 0.3126,0.02082 0.46875,0.02734l-2.37109,2.06445c-0.26943,0.23478 -0.39311,0.59548 -0.32445,0.94619c0.06866,0.35071 0.31923,0.63814 0.6573,0.75399c0.33807,0.11585 0.71227,0.04251 0.9816,-0.19237l3.03906,-2.64844c0.17844,-0.15163 0.29801,-0.36106 0.33789,-0.5918c0.74631,0.18477 1.48413,0.43769 2.20508,0.75586l-2.32617,2.0293c-0.41637,0.36298 -0.45966,0.99476 -0.09668,1.41113c0.36298,0.41637 0.99476,0.45966 1.41113,0.09668l2.90625,-2.53516c0.84695,0.53221 1.64221,1.15874 2.375,1.85352l-2.67187,2.13281c-0.28422,0.22105 -0.42767,0.57782 -0.3756,0.93409c0.05208,0.35628 0.29165,0.65705 0.62725,0.7875c0.3356,0.13045 0.71542,0.07043 0.99444,-0.15715l2.78711,-2.22656c0.73132,0.91088 1.35313,1.90578 1.82422,2.96875l-1.60742,1.28125c-0.28422,0.22105 -0.42767,0.57782 -0.3756,0.93409c0.05208,0.35628 0.29165,0.65705 0.62725,0.7875c0.3356,0.13045 0.71542,0.07043 0.99444,-0.15715l1.04492,-0.83398c0.21028,0.85929 0.33203,1.74501 0.33203,2.6543c0,2.99908 -0.4903,5.54393 -2.25586,8.44922c-0.33101,0.26679 -0.56841,0.63212 -0.67773,1.04297c-0.8853,1.2783 -2.0115,2.63698 -3.45898,4.14453c-3.0722,3.19469 -5.5845,7.97082 -7.45312,12.01367c-0.63532,1.37454 -0.57764,1.39957 -1.0332,2.50586c-1.30195,-3.05642 -3.37968,-7.14491 -6.52148,-11.33398c0,-0.00065 0,-0.0013 0,-0.00195c-3.41606,-4.5486 -7.59961,-9.82994 -7.59961,-14.79883c0,-8.87075 6.99246,-14.07482 14.25781,-15.01562c0.42177,-0.05462 0.84826,-0.08107 1.27734,-0.08203zM28.89844,20.00781c8.0565,0.07822 15.90148,0.69063 23.98437,1.07031c-1.78547,2.76078 -2.88281,6.08078 -2.88281,9.92188c0,3.00735 0.93603,5.78281 2.26172,8.32031l-32.15234,32.0293c-0.07425,-2.21112 -0.08645,-4.45 -0.08398,-6.69727c0.00326,-0.00063 0.00651,-0.00129 0.00977,-0.00195l4.55078,-0.76562c0.51783,-0.08054 0.88567,-0.54716 0.84308,-1.06949c-0.04259,-0.52232 -0.48115,-0.9232 -1.00519,-0.91879c-0.05698,0.00036 -0.11383,0.00559 -0.16992,0.01563l-4.23633,0.71289c0.01121,-1.21536 0.04441,-2.44232 0.07031,-3.66602l2.38867,-0.13672c0.55228,-0.0124 0.98994,-0.47018 0.97754,-1.02246c-0.0124,-0.55228 -0.47018,-0.98994 -1.02246,-0.97754c-0.0228,-0.00013 -0.0456,0.00052 -0.06836,0.00195l-2.23633,0.12891c0.02748,-1.04334 0.05969,-2.09242 0.09375,-3.14062l2.08594,-0.12109c0.53548,-0.03382 0.94887,-0.48418 0.93681,-1.02059c-0.01206,-0.53641 -0.44527,-0.96774 -0.98173,-0.97746c-0.0228,-0.00013 -0.0456,0.00052 -0.06836,0.00195l-1.9043,0.10938c0.32078,-9.10224 0.78198,-18.35285 0.64063,-27.54688c0.00003,-0.00586 0.00003,-0.01172 0,-0.01758c-0.02691,-1.09316 0.38359,-2.15443 1.13867,-2.94727c0,-0.00065 0,-0.0013 0,-0.00195c0.75439,-0.79278 1.78516,-1.24864 2.88477,-1.27344c1.32273,-0.01985 2.63689,-0.02247 3.94531,-0.00977zM68.5,25.26953c-1.7425,0 -3.17437,0.667 -4.11133,1.68945c-0.93696,1.02245 -1.38867,2.35544 -1.38867,3.67578c0,1.32034 0.45172,2.65528 1.38867,3.67773c0.93696,1.02245 2.36883,1.6875 4.11133,1.6875c1.7425,0 3.17437,-0.66505 4.11133,-1.6875c0.93696,-1.02245 1.38867,-2.35739 1.38867,-3.67773c0,-1.32034 -0.45172,-2.65333 -1.38867,-3.67578c-0.93696,-1.02245 -2.36883,-1.68945 -4.11133,-1.68945zM33.20703,25.28906c-0.29879,-0.01445 -0.60817,-0.00758 -0.92578,0.02539c-1.90567,0.19782 -4.10289,1.31357 -6.0957,4.10352h0.00195c-1.68048,2.34978 -1.67896,5.29564 -0.41406,7.69922c1.26489,2.40358 3.77213,4.32075 7.0625,4.86914c1.70701,0.28431 3.1862,-0.11604 4.29492,-0.88477c1.10872,-0.76873 1.86028,-1.85097 2.39063,-2.91992c1.06069,-2.13791 1.2832,-4.3418 1.2832,-4.3418c0.03107,-0.29025 -0.06621,-0.57958 -0.26633,-0.79209c-0.20012,-0.21251 -0.48309,-0.32698 -0.77468,-0.31338l-4.81055,0.22656c-0.55175,0.02589 -0.97804,0.49415 -0.95215,1.0459c0.02589,0.55175 0.49415,0.97804 1.0459,0.95215l3.55078,-0.16797c-0.16298,0.70168 -0.43202,1.61894 -0.86914,2.5c-0.43216,0.87105 -1.01317,1.66657 -1.73633,2.16797c-0.72315,0.5014 -1.57514,0.76338 -2.82813,0.55469c-2.70963,-0.45161 -4.65849,-1.99896 -5.62109,-3.82812c-0.96261,-1.82917 -0.95999,-3.8843 0.26953,-5.60352c0.00065,0 0.0013,0 0.00195,0c2.34291,-3.28007 4.32547,-3.53451 5.86523,-3.22656c1.53976,0.30795 2.61328,1.35156 2.61328,1.35156c0.25082,0.26124 0.62327,0.36648 0.97371,0.27512c0.35044,-0.09136 0.62411,-0.36503 0.71547,-0.71547c0.09136,-0.35044 -0.01388,-0.72289 -0.27512,-0.97371c0,0 -1.42648,-1.45639 -3.63672,-1.89844c-0.27628,-0.05526 -0.56449,-0.09102 -0.86328,-0.10547zM68.5,27.26953c1.2575,0 2.07563,0.42659 2.63867,1.04102c0.56304,0.61442 0.86133,1.46206 0.86133,2.32422c0,0.86216 -0.29829,1.71175 -0.86133,2.32617c-0.56304,0.61442 -1.38117,1.03906 -2.63867,1.03906c-1.2575,0 -2.07563,-0.42464 -2.63867,-1.03906c-0.56304,-0.61442 -0.86133,-1.46402 -0.86133,-2.32617c0,-0.86215 0.29829,-1.7098 0.86133,-2.32422c0.56304,-0.61442 1.38117,-1.04102 2.63867,-1.04102zM53.29492,41.11328c0.93938,1.53181 1.9478,2.93709 2.96094,4.27344l-31.90625,33.69336c-2.22128,-0.30423 -3.92814,-2.08149 -4.0918,-4.35352c-0.01472,-0.26248 -0.02187,-0.52792 -0.03516,-0.79102c0.13254,-0.04967 0.25303,-0.12689 0.35352,-0.22656zM79.97461,44.86523c-0.06809,10.26727 -0.39209,13.8025 -0.65039,15.98242c-0.30471,2.57161 -0.50141,4.09469 0.04883,13.91602c0.01731,0.37827 -0.02859,0.74081 -0.10156,1.09375l-11.19727,-11.19727c0.82024,-0.03007 1.53886,-0.55819 1.8125,-1.33203c0,0 1.11242,-3.15736 2.89844,-7.02148c1.78602,-3.86412 4.30004,-8.41762 6.70703,-10.91992c0,-0.00065 0,-0.0013 0,-0.00195c0.16779,-0.17475 0.32132,-0.34626 0.48242,-0.51953zM27.81055,46.46289c-0.55,0 -1,0.448 -1,1c0,0.552 0.45,1 1,1c0.55,0 1,-0.448 1,-1c0,-0.552 -0.45,-1 -1,-1zM36,46.46289c-0.55,0 -1,0.448 -1,1c0,0.552 0.45,1 1,1c0.55,0 1,-0.448 1,-1c0,-0.552 -0.45,-1 -1,-1zM57.48438,46.99805c0.30103,0.39179 0.63647,0.8309 0.91602,1.20313c4.90203,6.53653 6.91418,12.50188 7.43359,14.21875l-11.78906,-11.78906zM32.81055,50.86523c-0.55,0 -1,0.448 -1,1c0,0.552 0.45,1 1,1c0.55,0 1,-0.448 1,-1c0,-0.552 -0.45,-1 -1,-1zM52.66992,52.08398l25.68164,25.68164c-0.72451,0.85815 -1.7748,1.43746 -2.99219,1.5293c-0.41474,0.02831 -0.84443,0.04574 -1.26172,0.07227l-24.72266,-23.80664zM48.00195,57.01172l23.37695,22.51367c-8.93895,0.48083 -18.43093,0.57416 -28.38281,0.34375l0.89844,-0.89258c0.29635,-0.28654 0.38653,-0.72556 0.22712,-1.10571c-0.15941,-0.38016 -0.53573,-0.62356 -0.94782,-0.61304c-0.25992,0.0062 -0.50722,0.11339 -0.68945,0.29883l-2.25391,2.23828c-1.46949,-0.04233 -2.94922,-0.09085 -4.4375,-0.14648l1.91211,-1.89844c0.29635,-0.28654 0.38653,-0.72556 0.22712,-1.10571c-0.15941,-0.38016 -0.53573,-0.62356 -0.94782,-0.61304c-0.25992,0.0062 -0.50722,0.11339 -0.68945,0.29883l-3.23242,3.21289c-0.57669,-0.02444 -1.14527,-0.04399 -1.72461,-0.07031l2.36914,-2.36914c0.29576,-0.28749 0.38469,-0.72707 0.22393,-1.10691c-0.16075,-0.37985 -0.53821,-0.62204 -0.9505,-0.60988c-0.2598,0.00774 -0.50638,0.11632 -0.6875,0.30273l-3.64648,3.64648c-0.567,-0.02836 -1.13371,-0.05586 -1.70312,-0.08594z"></path></g></g></svg>